<?xml version="1.0"?>
<svg xmlns="http://www.w3.org/2000/svg" viewBox="0 0 16 16">
    <path d="M 8.506 1.517 L 8.506 2.042 C 9.442 2.111 10.324 2.335 11.039 2.792 C 11.912 3.351 12.508 4.297 12.512 5.511 L 12.512 7.023 L 12.674 7.023 C 13.646 7.023 14.506 7.737 14.506 8.691 L 14.506 11.267 C 14.509 11.451 14.41 11.621 14.25 11.711 C 13.914 11.898 13.501 11.652 13.506 11.267 L 13.506 8.691 C 13.506 8.36 13.168 8.023 12.674 8.023 L 12.512 8.023 L 12.512 11.181 C 12.512 12.188 11.684 13.015 10.678 13.015 L 9.502 13.015 L 9.506 14.517 C 9.506 15.217 8.506 15.217 8.506 14.517 L 8.502 13.017 L 7.508 13.017 L 7.506 14.517 C 7.508 15.17 6.506 15.217 6.506 14.517 L 6.508 13.015 L 5.334 13.015 C 4.328 13.015 3.5 12.188 3.5 11.181 L 3.5 8.023 L 3.338 8.023 C 2.844 8.023 2.506 8.36 2.506 8.691 L 2.506 11.017 C 2.509 11.201 2.41 11.371 2.25 11.461 C 1.914 11.648 1.501 11.402 1.506 11.017 L 1.506 8.691 C 1.506 7.737 2.366 7.023 3.338 7.023 L 3.5 7.023 L 3.5 5.511 C 3.504 4.424 4.015 3.502 4.819 2.906 C 5.535 2.374 6.472 2.094 7.506 2.037 L 7.506 1.517 C 7.502 1.241 7.722 1.013 7.998 1.009 C 8.28 1.005 8.51 1.235 8.506 1.517 Z M 5.414 3.708 C 4.83 4.143 4.503 4.723 4.5 5.513 L 4.5 6.136 L 4.506 6.136 C 4.506 6.629 4.887 7.012 5.338 7.011 L 10.674 7.011 C 11.125 7.011 11.506 6.629 11.506 6.136 L 11.512 6.136 L 11.512 5.513 C 11.509 4.601 11.14 4.044 10.5 3.634 C 9.888 3.242 8.996 3.037 8.014 3.019 C 7.992 3.019 7.969 3.018 7.947 3.015 C 7.925 3.015 7.904 3.011 7.881 3.011 C 6.865 3.011 5.999 3.274 5.414 3.708 Z M 6.506 5.511 C 6.506 5.787 6.282 6.011 6.006 6.011 C 5.73 6.011 5.506 5.787 5.506 5.511 C 5.506 5.235 5.73 5.011 6.006 5.011 C 6.282 5.011 6.506 5.235 6.506 5.511 Z M 10.506 5.511 C 10.506 5.787 10.282 6.011 10.006 6.011 C 9.73 6.011 9.506 5.787 9.506 5.511 C 9.506 5.235 9.73 5.011 10.006 5.011 C 10.282 5.011 10.506 5.235 10.506 5.511 Z M 4.5 11.181 C 4.5 11.642 4.873 12.015 5.334 12.015 L 10.678 12.015 C 11.139 12.015 11.512 11.642 11.512 11.181 L 11.512 7.792 C 11.26 7.927 10.978 8.011 10.674 8.011 L 5.338 8.011 C 5.034 8.011 4.752 7.927 4.5 7.792 L 4.5 11.181 Z" style="transform-box: fill-box; transform-origin: 50% 50%;"></path>
    <path d="M 5.115 11.029 L 5.115 10.906 L 5.731 10.906 L 5.731 11.029 L 5.115 11.029 Z M 5.115 11.275 L 5.115 11.152 L 5.731 11.152 L 5.731 11.275 L 5.115 11.275 Z M 5.115 11.521 L 5.115 11.398 L 5.731 11.398 L 5.731 11.521 L 5.115 11.521 Z" style="fill: rgb(51, 51, 51);"></path>
    <path d="M 6.868 8.691 L 6.991 8.691 L 6.991 11.521 L 6.868 11.521 L 6.868 8.691 Z M 6.622 8.691 L 6.745 8.691 L 6.745 11.521 L 6.622 11.521 L 6.622 8.691 Z M 6.376 8.691 L 6.499 8.691 L 6.499 11.521 L 6.376 11.521 L 6.376 8.691 Z M 6.13 8.691 L 6.253 8.691 L 6.253 11.521 L 6.13 11.521 L 6.13 8.691 Z" style="fill: rgb(51, 51, 51);"></path>
    <path d="M 8.412 9.627 C 8.412 9.627 8.379 9.66 8.312 9.727 C 8.246 9.793 8.213 9.919 8.213 10.106 C 8.213 10.293 8.279 10.452 8.412 10.584 C 8.544 10.717 8.703 10.783 8.89 10.783 C 9.077 10.783 9.236 10.717 9.369 10.584 C 9.501 10.452 9.567 10.293 9.567 10.106 C 9.567 9.919 9.501 9.76 9.369 9.627 C 9.236 9.495 9.077 9.429 8.89 9.429 C 8.703 9.429 8.544 9.495 8.412 9.627 Z M 8.153 10.416 C 8.153 10.416 8.143 10.391 8.122 10.342 C 8.101 10.293 8.09 10.214 8.09 10.106 C 8.09 9.998 8.111 9.895 8.153 9.796 C 8.196 9.697 8.253 9.612 8.324 9.54 C 8.396 9.469 8.481 9.412 8.58 9.369 C 8.679 9.327 8.782 9.306 8.89 9.306 C 8.998 9.306 9.101 9.327 9.2 9.369 C 9.299 9.412 9.384 9.469 9.456 9.54 C 9.527 9.612 9.584 9.697 9.627 9.796 C 9.669 9.895 9.69 9.998 9.69 10.106 C 9.69 10.214 9.669 10.317 9.627 10.416 C 9.584 10.515 9.527 10.6 9.456 10.672 C 9.384 10.743 9.299 10.8 9.2 10.843 C 9.101 10.885 8.998 10.906 8.89 10.906 C 8.782 10.906 8.679 10.885 8.58 10.843 C 8.481 10.8 8.396 10.743 8.324 10.672 C 8.253 10.6 8.196 10.515 8.153 10.416 Z M 8.091 9.643 C 8.091 9.643 8.07 9.678 8.029 9.749 C 7.988 9.82 7.967 9.939 7.967 10.106 C 7.967 10.273 8.008 10.428 8.091 10.569 C 8.174 10.71 8.286 10.822 8.427 10.905 C 8.568 10.988 8.723 11.029 8.89 11.029 C 9.057 11.029 9.212 10.988 9.353 10.905 C 9.494 10.822 9.606 10.71 9.689 10.569 C 9.772 10.428 9.813 10.273 9.813 10.106 C 9.813 9.939 9.772 9.784 9.689 9.643 C 9.606 9.502 9.494 9.39 9.353 9.307 C 9.212 9.224 9.057 9.183 8.89 9.183 C 8.723 9.183 8.568 9.224 8.427 9.307 C 8.286 9.39 8.174 9.502 8.091 9.643 Z M 7.984 10.631 C 7.984 10.631 7.961 10.591 7.914 10.51 C 7.867 10.43 7.844 10.295 7.844 10.106 C 7.844 9.917 7.891 9.742 7.984 9.581 C 8.077 9.42 8.204 9.293 8.365 9.2 C 8.526 9.107 8.701 9.06 8.89 9.06 C 9.079 9.06 9.254 9.107 9.415 9.2 C 9.576 9.293 9.703 9.42 9.796 9.581 C 9.889 9.742 9.936 9.917 9.936 10.106 C 9.936 10.295 9.889 10.47 9.796 10.631 C 9.703 10.792 9.576 10.919 9.415 11.012 C 9.254 11.105 9.079 11.152 8.89 11.152 C 8.701 11.152 8.526 11.105 8.365 11.012 C 8.204 10.919 8.077 10.792 7.984 10.631 Z M 7.813 9.651 C 7.813 9.651 7.798 9.687 7.767 9.76 C 7.736 9.832 7.721 9.947 7.721 10.106 C 7.721 10.265 7.752 10.416 7.813 10.561 C 7.875 10.706 7.958 10.83 8.062 10.934 C 8.166 11.038 8.29 11.121 8.435 11.183 C 8.58 11.244 8.731 11.275 8.89 11.275 C 9.049 11.275 9.2 11.244 9.345 11.183 C 9.49 11.121 9.614 11.038 9.718 10.934 C 9.822 10.83 9.905 10.706 9.967 10.561 C 10.028 10.416 10.059 10.265 10.059 10.106 C 10.059 9.947 10.028 9.796 9.967 9.651 C 9.905 9.506 9.822 9.382 9.718 9.278 C 9.614 9.174 9.49 9.091 9.345 9.029 C 9.2 8.968 9.049 8.937 8.89 8.937 C 8.731 8.937 8.58 8.968 8.435 9.029 C 8.29 9.091 8.166 9.174 8.062 9.278 C 7.958 9.382 7.875 9.506 7.813 9.651 Z M 7.771 10.754 C 7.771 10.754 7.742 10.704 7.685 10.605 C 7.627 10.506 7.598 10.339 7.598 10.106 C 7.598 9.873 7.656 9.657 7.771 9.458 C 7.887 9.26 8.044 9.103 8.242 8.987 C 8.441 8.872 8.657 8.814 8.89 8.814 C 9.123 8.814 9.339 8.872 9.538 8.987 C 9.736 9.103 9.893 9.26 10.009 9.458 C 10.124 9.657 10.182 9.873 10.182 10.106 C 10.182 10.339 10.124 10.555 10.009 10.754 C 9.893 10.952 9.736 11.109 9.538 11.224 C 9.339 11.34 9.123 11.398 8.89 11.398 C 8.657 11.398 8.441 11.34 8.242 11.224 C 8.044 11.109 7.887 10.952 7.771 10.754 Z M 7.587 9.557 C 7.587 9.557 7.568 9.601 7.531 9.688 C 7.494 9.775 7.475 9.915 7.475 10.106 C 7.475 10.297 7.512 10.48 7.587 10.655 C 7.662 10.83 7.762 10.981 7.889 11.107 C 8.015 11.234 8.166 11.334 8.341 11.409 C 8.516 11.484 8.699 11.521 8.89 11.521 C 9.081 11.521 9.264 11.484 9.439 11.409 C 9.614 11.334 9.765 11.234 9.891 11.107 C 10.018 10.981 10.118 10.83 10.193 10.655 C 10.268 10.48 10.305 10.297 10.305 10.106 C 10.305 9.915 10.268 9.732 10.193 9.557 C 10.118 9.382 10.018 9.231 9.891 9.104 C 9.765 8.978 9.614 8.878 9.439 8.803 C 9.264 8.728 9.081 8.691 8.89 8.691 C 8.699 8.691 8.516 8.728 8.341 8.803 C 8.166 8.878 8.015 8.978 7.889 9.104 C 7.762 9.231 7.662 9.382 7.587 9.557 Z M 7.474 10.703 C 7.474 10.703 7.454 10.656 7.413 10.561 C 7.372 10.466 7.352 10.315 7.352 10.106 C 7.352 9.897 7.393 9.698 7.474 9.509 C 7.555 9.319 7.665 9.155 7.802 9.018 C 7.939 8.881 8.103 8.771 8.293 8.69 C 8.482 8.609 8.681 8.568 8.89 8.568 C 9.099 8.568 9.298 8.609 9.487 8.69 C 9.677 8.771 9.841 8.881 9.978 9.018 C 10.115 9.155 10.225 9.319 10.306 9.509 C 10.387 9.698 10.428 9.897 10.428 10.106 C 10.428 10.315 10.387 10.514 10.306 10.703 C 10.225 10.893 10.115 11.057 9.978 11.194 C 9.841 11.331 9.677 11.441 9.487 11.522 C 9.298 11.603 9.099 11.644 8.89 11.644 C 8.681 11.644 8.482 11.603 8.293 11.522 C 8.103 11.441 7.939 11.331 7.802 11.194 C 7.665 11.057 7.555 10.893 7.474 10.703 Z" style="fill: rgb(51, 51, 51);"></path>
</svg>
