<?xml version="1.0"?>
<svg xmlns="http://www.w3.org/2000/svg" viewBox="0 0 16 16">
<path d="M 8.497 4.409 L 8.497 4.934 C 9.433 5.003 10.315 5.227 11.03 5.684 C 11.903 6.243 12.499 7.189 12.503 8.403 L 12.503 9.915 L 11.503 10.684 C 11.251 10.819 10.969 10.903 10.665 10.903 L 5.329 10.903 C 5.025 10.903 4.743 10.819 4.491 10.684 L 3.491 9.915 L 3.491 8.403 C 3.495 7.316 4.006 6.394 4.81 5.798 C 5.526 5.266 6.463 4.986 7.497 4.929 L 7.497 4.409 C 7.493 4.133 7.713 3.905 7.989 3.901 C 8.271 3.897 8.501 4.127 8.497 4.409 Z M 5.405 6.6 C 4.821 7.035 4.494 7.615 4.491 8.405 L 4.491 9.028 L 4.497 9.028 C 4.497 9.521 4.878 9.904 5.329 9.903 L 10.665 9.903 C 11.116 9.903 11.497 9.521 11.497 9.028 L 11.503 9.028 L 11.503 8.405 C 11.5 7.493 11.131 6.936 10.491 6.526 C 9.879 6.134 8.987 5.929 8.005 5.911 C 7.983 5.911 7.96 5.91 7.938 5.907 C 7.916 5.907 7.895 5.903 7.872 5.903 C 6.856 5.903 5.99 6.166 5.405 6.6 Z M 6.497 8.403 C 6.497 8.679 6.273 8.903 5.997 8.903 C 5.721 8.903 5.497 8.679 5.497 8.403 C 5.497 8.127 5.721 7.903 5.997 7.903 C 6.273 7.903 6.497 8.127 6.497 8.403 Z M 10.497 8.403 C 10.497 8.679 10.273 8.903 9.997 8.903 C 9.721 8.903 9.497 8.679 9.497 8.403 C 9.497 8.127 9.721 7.903 9.997 7.903 C 10.273 7.903 10.497 8.127 10.497 8.403 Z" style=""></path>
</svg>
