<svg xmlns="http://www.w3.org/2000/svg" viewBox="0 0 16 16"><path d="M8.506 1.517v.525c.936.069 1.818.293 2.533.75.873.559 1.469 1.505 1.473 2.719v1.512h.162c.972 0 1.832.714 1.832 1.668v2.576a.5.5 0 1 1-1 0V8.691c0-.331-.338-.668-.832-.668h-.162v3.158a1.84 1.84 0 0 1-1.834 1.834H9.502l.004 1.502c0 .7-1 .7-1 0l-.004-1.5h-.994l-.002 1.5c.002.653-1 .7-1 0l.002-1.502H5.334A1.84 1.84 0 0 1 3.5 11.181V8.023h-.162c-.494 0-.832.337-.832.668v2.326a.5.5 0 1 1-1 0V8.691c0-.954.86-1.668 1.832-1.668H3.5V5.511a3.21 3.21 0 0 1 1.319-2.605c.716-.532 1.653-.812 2.687-.869v-.52a.5.5 0 1 1 1 0M5.414 3.708c-.584.435-.911 1.015-.914 1.805v.623h.006c0 .493.381.876.832.875h5.336c.451 0 .832-.382.832-.875h.006v-.623c-.003-.912-.372-1.469-1.012-1.879-.612-.392-1.504-.597-2.486-.615l-.067-.004-.066-.004c-1.016 0-1.882.263-2.467.697m1.092 1.803a.5.5 0 1 1-1 0 .5.5 0 0 1 1 0m4 0a.5.5 0 1 1-1 0 .5.5 0 0 1 1 0M4.5 11.181c0 .461.373.834.834.834h5.344a.833.833 0 0 0 .834-.834V7.792a1.8 1.8 0 0 1-.838.219H5.338c-.304 0-.586-.084-.838-.219z" style="transform-box:fill-box;transform-origin:50% 50%" fill="white"/><path d="m7.268 9.588-.086.057q-.079-.117-.206-.185t-.275-.068q-.24 0-.41.17t-.17.41.17.41.41.17q.148 0 .275-.069t.206-.186l.085.062q-.094.138-.243.218-.15.081-.323.081-.139 0-.265-.055-.127-.054-.219-.146-.093-.092-.147-.219t-.054-.266.054-.266.147-.219q.092-.092.219-.146.126-.054.265-.054.175 0 .324.081t.243.22m.175-.12-.088.057q-.109-.158-.281-.251t-.373-.093q-.215 0-.397.106-.181.106-.287.288-.107.182-.107.397t.107.397q.106.182.287.288.182.106.397.106.201 0 .374-.094.173-.093.281-.253l.087.06q-.123.182-.319.287-.196.106-.423.106-.243 0-.449-.121-.207-.12-.327-.326t-.12-.45.12-.45.327-.326.449-.12q.227 0 .423.105.196.106.319.287m.175-.117-.088.057q-.137-.202-.356-.32t-.473-.118q-.203 0-.389.079t-.32.213-.213.32q-.08.186-.08.39t.08.39q.079.186.213.32t.32.213.389.079q.255 0 .474-.119.218-.118.355-.32l.085.063q-.152.222-.393.352t-.521.13q-.3 0-.555-.149t-.403-.404q-.149-.255-.149-.555t.149-.555q.148-.255.403-.404.255-.148.555-.148.282 0 .523.131t.394.355m.173-.12-.088.057q-.167-.245-.431-.387t-.571-.142q-.246 0-.471.096t-.387.259-.259.387q-.095.225-.095.471t.095.471q.096.225.259.388.163.162.387.258.225.096.471.096.307 0 .572-.144.265-.143.432-.388l.085.065q-.182.263-.469.418t-.62.154q-.268 0-.512-.104-.243-.105-.42-.282-.176-.176-.281-.42t-.105-.512.105-.512.281-.42q.177-.177.42-.282.244-.104.512-.104.334 0 .621.155.288.155.469.422m1.249 1.242.043-.105h.36l.043.105Zm-.082.211.041-.105h.526l.046.105Zm-.082.211.041-.106h.692l.044.106Zm-.857.29h-.114l.96-2.426h.114l.958 2.426h-.113l-.902-2.284Zm.916-2.033.06.135-.75 1.898h-.113Zm.117.278.056.145-.634 1.61h-.115Zm.111.29.056.148-.52 1.317h-.113Zm1.455 1.465h-.114l-.958-2.426h.113ZM9.432 8.759l.959 2.426h-.113l-.959-2.426Zm-.228 0 .96 2.426h-.114l-.958-2.426Z" style="fill:#ccc"/></svg>