<?xml version="1.0" standalone="no"?>
<!DOCTYPE svg PUBLIC "-//W3C//DTD SVG 20010904//EN"
 "http://www.w3.org/TR/2001/REC-SVG-20010904/DTD/svg10.dtd">
<svg version="1.0" xmlns="http://www.w3.org/2000/svg"
 width="700.000000pt" height="700.000000pt" viewBox="0 0 700.000000 700.000000"
 preserveAspectRatio="xMidYMid meet">
<metadata>
Created by potrace 1.14, written by Peter Selinger 2001-2017
</metadata>
<g transform="translate(0.000000,700.000000) scale(0.100000,-0.100000)"
fill="#000000" stroke="none">
<path d="M3432 6546 c-48 -17 -99 -62 -124 -109 -19 -37 -22 -60 -23 -179 -1
-76 -4 -141 -8 -144 -4 -4 -27 -8 -51 -9 -51 -3 -131 -13 -261 -31 -163 -22
-432 -108 -597 -189 -246 -122 -486 -326 -598 -511 -13 -21 -27 -41 -31 -44
-31 -23 -159 -338 -172 -425 -3 -16 -8 -41 -11 -55 -3 -14 -8 -41 -12 -60 -4
-19 -9 -219 -11 -445 -3 -225 -6 -411 -7 -413 -2 -1 -47 -4 -102 -7 -224 -11
-425 -100 -572 -254 -48 -51 -103 -130 -125 -182 -9 -18 -22 -50 -31 -69 -8
-20 -19 -51 -23 -70 -4 -19 -8 -308 -8 -641 l0 -605 28 -42 c76 -116 242 -135
338 -39 64 65 63 45 64 662 1 541 2 562 22 605 54 120 194 200 351 200 l62 0
1 -712 c0 -392 2 -729 5 -748 28 -227 130 -411 304 -552 101 -82 270 -152 395
-165 33 -4 184 -7 336 -7 l275 0 1 -341 c0 -187 3 -357 7 -377 10 -53 60 -117
111 -139 120 -53 274 10 307 126 7 26 12 159 12 385 l1 345 218 0 217 0 0
-330 c1 -359 3 -392 31 -447 64 -126 270 -144 356 -32 49 65 51 84 50 452 0
188 3 345 7 350 4 4 141 8 304 8 267 1 306 4 387 23 158 38 297 120 405 238
99 108 157 218 192 362 20 83 21 110 22 824 l0 737 61 0 c125 -1 229 -43 300
-122 76 -85 75 -70 75 -752 1 -575 2 -603 21 -640 26 -54 53 -81 105 -105 87
-41 205 -14 263 61 47 59 48 83 46 748 -2 678 -2 670 -60 797 -118 259 -396
435 -710 448 l-100 5 -1 387 c-1 232 -6 422 -13 473 -55 402 -270 744 -609
971 -100 67 -297 169 -325 169 -7 0 -17 4 -22 9 -13 11 -179 65 -282 91 -124
31 -359 67 -478 74 -19 1 -20 9 -22 138 -2 151 -15 199 -67 251 -57 57 -150
79 -224 53z m148 -871 c85 -4 171 -9 190 -11 19 -2 49 -6 65 -8 208 -22 498
-106 662 -190 70 -36 182 -113 248 -171 143 -125 242 -309 276 -513 14 -84 19
-437 8 -520 -22 -161 -144 -293 -297 -321 -25 -5 -583 -9 -1240 -9 -936 1
-1206 4 -1244 14 -107 28 -206 116 -249 223 -22 52 -24 71 -26 291 -1 129 2
262 8 295 51 318 248 570 574 733 188 94 314 132 595 176 19 3 82 9 140 12 58
4 107 8 108 10 2 1 9 1 15 -1 7 -2 82 -7 167 -10z m-1449 -2149 c30 -9 79 -20
109 -23 30 -4 609 -7 1285 -7 1360 0 1303 -2 1443 64 34 16 63 26 65 22 2 -4
3 -353 2 -777 -1 -758 -2 -771 -22 -823 -47 -117 -142 -201 -257 -227 -38 -9
-367 -11 -1271 -10 -1072 1 -1225 3 -1262 17 -107 40 -180 105 -225 204 l-23
49 -3 787 -3 787 54 -23 c29 -14 78 -31 108 -40z"/>
<path d="M2566 4799 c-149 -42 -206 -242 -100 -355 85 -89 209 -98 301 -19
120 103 99 285 -42 357 -43 23 -113 30 -159 17z"/>
<path d="M4287 4785 c-141 -68 -170 -246 -58 -354 58 -55 153 -76 222 -47 90
38 141 110 141 200 0 70 -9 99 -47 145 -62 73 -172 98 -258 56z"/>
<path d="M3775 3243 c-335 -67 -562 -347 -558 -686 3 -190 102 -387 255 -505
132 -101 260 -144 425 -144 419 2 736 395 650 808 -66 313 -338 533 -657 531
-52 0 -104 -2 -115 -4z m295 -74 c97 -31 182 -82 253 -152 195 -191 239 -483
110 -730 -40 -76 -153 -201 -208 -229 -157 -82 -221 -98 -360 -93 -55 2 -122
11 -150 19 -260 84 -437 315 -444 581 -2 109 14 181 66 285 112 225 332 355
583 344 50 -2 112 -12 150 -25z"/>
<path d="M3835 3142 c-56 -6 -148 -33 -199 -59 -187 -94 -307 -285 -309 -493
-1 -151 16 -213 95 -327 103 -151 273 -245 448 -246 128 -2 197 14 285 63 217
120 332 357 292 600 -27 161 -154 329 -307 403 -92 45 -214 69 -305 59z m175
-67 c387 -102 521 -576 241 -856 -202 -201 -519 -201 -721 1 -110 110 -156
234 -148 398 4 82 8 99 47 177 72 145 192 243 344 281 63 16 175 15 237 -1z"/>
<path d="M3838 3035 c-2 -2 -21 -6 -43 -9 -64 -10 -178 -71 -229 -123 -46 -48
-99 -136 -118 -196 -27 -90 -12 -283 26 -327 8 -8 21 -29 29 -46 42 -83 176
-178 281 -200 282 -59 540 132 561 414 15 213 -128 416 -333 471 -39 11 -167
22 -174 16z m222 -93 c84 -40 148 -104 191 -188 32 -65 34 -73 34 -173 0 -94
-3 -112 -27 -163 -84 -180 -251 -266 -453 -234 -64 10 -148 57 -206 117 -120
123 -149 322 -67 465 30 53 123 154 142 154 5 0 17 6 25 14 33 29 113 46 206
43 77 -3 99 -8 155 -35z"/>
<path d="M3785 2911 c-103 -34 -168 -92 -214 -191 -22 -46 -26 -69 -26 -145 0
-84 2 -95 34 -153 70 -130 190 -198 329 -190 129 7 237 80 294 196 30 60 33
75 33 152 -1 71 -5 94 -28 140 -80 166 -258 246 -422 191z m232 -67 c143 -69
207 -242 141 -384 -115 -251 -473 -227 -551 38 -18 59 -14 170 8 212 19 37 94
109 137 131 82 42 181 43 265 3z"/>
<path d="M2682 2581 l0 -621 27 0 26 0 0 618 0 617 -26 3 -27 3 0 -620z"/>
<path d="M2790 2580 l0 -620 25 0 c14 0 25 3 26 8 1 4 2 279 3 612 0 394 -2
608 -9 612 -5 4 -18 8 -27 8 -17 0 -18 -36 -18 -620z"/>
<path d="M2899 3182 c-3 -14 -3 -1145 0 -1204 1 -12 9 -18 26 -18 l25 0 0 618
0 618 -24 2 c-16 1 -25 -4 -27 -16z"/>
<path d="M3009 3193 c-1 -5 -2 -284 -3 -620 l-1 -613 28 0 27 0 0 620 -1 620
-24 0 c-14 0 -26 -3 -26 -7z"/>
<path d="M2240 2202 l0 -28 128 -1 c129 0 142 4 142 40 0 15 -13 17 -135 17
l-135 0 0 -28z"/>
<path d="M2238 2115 c-3 -3 -3 -15 -1 -28 4 -21 8 -22 121 -20 64 1 125 2 135
2 11 1 17 9 17 26 l0 25 -133 0 c-74 0 -136 -2 -139 -5z"/>
<path d="M2250 2010 c-4 -3 -10 -14 -12 -25 -3 -19 3 -20 135 -23 l138 -3 -3
28 -3 27 -123 0 c-68 1 -128 -1 -132 -4z"/>
</g>
</svg>
